<?xml version="1.0" encoding="UTF-8" standalone="no"?>
<!-- Created with Inkscape (http://www.inkscape.org/) -->

<svg
   xmlns:dc="http://purl.org/dc/elements/1.1/"
   xmlns:cc="http://creativecommons.org/ns#"
   xmlns:rdf="http://www.w3.org/1999/02/22-rdf-syntax-ns#"
   xmlns:svg="http://www.w3.org/2000/svg"
   xmlns="http://www.w3.org/2000/svg"
   xmlns:sodipodi="http://sodipodi.sourceforge.net/DTD/sodipodi-0.dtd"
   xmlns:inkscape="http://www.inkscape.org/namespaces/inkscape"
   width="512"
   height="512"
   viewBox="0 0 135.46666 135.46667"
   version="1.1"
   id="svg4553"
   inkscape:version="0.92.5 (2060ec1f9f, 2020-04-08)"
   sodipodi:docname="favicon.svg"
   inkscape:export-filename="/home/dmpop/Documents/tim/favicon.png"
   inkscape:export-xdpi="96"
   inkscape:export-ydpi="96">
  <defs
     id="defs4547" />
  <sodipodi:namedview
     id="base"
     pagecolor="#ffffff"
     bordercolor="#666666"
     borderopacity="1.0"
     inkscape:pageopacity="0.0"
     inkscape:pageshadow="2"
     inkscape:zoom="0.35"
     inkscape:cx="-97.142857"
     inkscape:cy="560"
     inkscape:document-units="mm"
     inkscape:current-layer="layer1"
     showgrid="false"
     units="px"
     inkscape:window-width="1920"
     inkscape:window-height="1017"
     inkscape:window-x="2560"
     inkscape:window-y="0"
     inkscape:window-maximized="1" />
  <metadata
     id="metadata4550">
    <rdf:RDF>
      <cc:Work
         rdf:about="">
        <dc:format>image/svg+xml</dc:format>
        <dc:type
           rdf:resource="http://purl.org/dc/dcmitype/StillImage" />
        <dc:title />
      </cc:Work>
    </rdf:RDF>
  </metadata>
  <g
     inkscape:label="Layer 1"
     inkscape:groupmode="layer"
     id="layer1"
     transform="translate(0,-161.53332)">
    <g
       id="g833"
       transform="matrix(0.98166872,0,0,0.98166872,1.1427418,3.3721262)">
      <path
         sodipodi:nodetypes="sssss"
         inkscape:connector-curvature="0"
         id="path4555-6"
         d="M 129.94293,258.2913 C 120.7636,288.10643 83.005321,289.8022 52.614434,282.75977 -8.0215566,268.70869 -3.2720163,240.77215 5.9073313,210.95703 15.086672,181.14189 50.712158,160.34925 100.70298,184.75462 c 39.47459,19.27138 38.4193,43.72156 29.23995,73.53668 z"
         style="fill:#88aa00;fill-opacity:1;stroke-width:0.23535712" />
      <path
         sodipodi:nodetypes="sssss"
         inkscape:connector-curvature="0"
         id="path4555"
         d="m 121.73157,233.721 c 0.94148,24.71882 -23.704713,32.23095 -48.29458,34.92256 -49.061771,5.3703 -55.994483,-13.13255 -56.935966,-37.85137 -0.941475,-24.71882 15.945351,-47.46366 59.752944,-42.29577 34.592072,4.08077 44.536122,20.50575 45.477602,45.22458 z"
         style="fill:#ff7f2a;fill-opacity:1;stroke-width:0.1866243" />
      <path
         sodipodi:nodetypes="sssss"
         inkscape:connector-curvature="0"
         id="path4573"
         d="m 27.939525,227.81484 c 0,12.66287 10.265272,22.92813 22.92813,22.92813 12.66285,0 -4.79892,-5.99957 -4.79892,-18.66243 0,-12.66285 17.46177,-27.19383 4.79892,-27.19383 -12.662858,0 -22.92813,10.26528 -22.92813,22.92813 z"
         style="fill:#ffcc00;fill-opacity:1;stroke-width:0.1866243" />
    </g>
  </g>
</svg>
